<?xml version="1.0" encoding="UTF-8" standalone="no"?>
<!-- Created with Inkscape (http://www.inkscape.org/) -->

<svg
   xmlns:dc="http://purl.org/dc/elements/1.1/"
   xmlns:cc="http://creativecommons.org/ns#"
   xmlns:rdf="http://www.w3.org/1999/02/22-rdf-syntax-ns#"
   xmlns:svg="http://www.w3.org/2000/svg"
   xmlns="http://www.w3.org/2000/svg"
   xmlns:sodipodi="http://sodipodi.sourceforge.net/DTD/sodipodi-0.dtd"
   xmlns:inkscape="http://www.inkscape.org/namespaces/inkscape"
   width="58.702221mm"
   height="58.702221mm"
   viewBox="0 0 208 207.99999"
   id="svg2"
   version="1.1"
   inkscape:version="0.91 r13725"
   sodipodi:docname="test.svg"
   inkscape:export-filename="D:\Users\Adam\Desktop\launcher_icon.png"
   inkscape:export-xdpi="221.53999"
   inkscape:export-ydpi="221.53999">
  <defs
     id="defs4">
    <filter
       inkscape:collect="always"
       style="color-interpolation-filters:sRGB"
       id="filter4153"
       x="-0.010314887"
       width="1.0206298"
       y="-0.014182969"
       height="1.0283659">
      <feGaussianBlur
         inkscape:collect="always"
         stdDeviation="0.094553128"
         id="feGaussianBlur4155" />
    </filter>
  </defs>
  <sodipodi:namedview
     id="base"
     pagecolor="#ffffff"
     bordercolor="#666666"
     borderopacity="1.0"
     inkscape:pageopacity="0.0"
     inkscape:pageshadow="2"
     inkscape:zoom="0.98994949"
     inkscape:cx="31.552811"
     inkscape:cy="194.61658"
     inkscape:document-units="px"
     inkscape:current-layer="svg2"
     showgrid="false"
     inkscape:window-width="1920"
     inkscape:window-height="1017"
     inkscape:window-x="-8"
     inkscape:window-y="-8"
     inkscape:window-maximized="1"
     inkscape:snap-bbox="true"
     inkscape:bbox-nodes="true"
     inkscape:snap-bbox-edge-midpoints="true"
     inkscape:snap-bbox-midpoints="true"
     inkscape:bbox-paths="true"
     inkscape:snap-grids="false"
     inkscape:object-paths="true"
     inkscape:snap-intersection-paths="true"
     inkscape:object-nodes="true"
     inkscape:snap-smooth-nodes="true"
     fit-margin-top="0"
     fit-margin-left="0"
     fit-margin-right="0"
     fit-margin-bottom="0" />
  <metadata
     id="metadata7">
    <rdf:RDF>
      <cc:Work
         rdf:about="">
        <dc:format>image/svg+xml</dc:format>
        <dc:type
           rdf:resource="http://purl.org/dc/dcmitype/StillImage" />
        <dc:title></dc:title>
      </cc:Work>
    </rdf:RDF>
  </metadata>
  <circle
     r="100"
     cy="106.00002"
     cx="106"
     id="circle4143"
     style="opacity:0.33500001;fill:#2a5769;fill-opacity:1;stroke:none;stroke-width:0.1;stroke-linecap:square;stroke-miterlimit:4;stroke-dasharray:none;stroke-dashoffset:0" />
  <circle
     style="opacity:1;fill:#2a5769;fill-opacity:1;stroke:none;stroke-width:0.1;stroke-linecap:square;stroke-miterlimit:4;stroke-dasharray:none;stroke-dashoffset:0"
     id="path4141"
     cx="102"
     cy="102.00002"
     r="100" />
  <g
     id="g12"
     transform="matrix(6.3636364,0,0,6.8018362,31.63637,24.378)"
     style="fill:#000000;fill-opacity:0.39053255;filter:url(#filter4153)">
    <path
       d="M 20,8 17,8 17,4 3,4 C 1.9,4 1,4.9 1,6 l 0,11 2,0 c 0,1.66 1.34,3 3,3 1.66,0 3,-1.34 3,-3 l 6,0 c 0,1.66 1.34,3 3,3 1.66,0 3,-1.34 3,-3 l 2,0 0,-5 -3,-4 z M 6,18.5 c -0.83,0 -1.5,-0.67 -1.5,-1.5 0,-0.83 0.67,-1.5 1.5,-1.5 0.83,0 1.5,0.67 1.5,1.5 0,0.83 -0.67,1.5 -1.5,1.5 z m 13.5,-9 1.96,2.5 -4.46,0 0,-2.5 2.5,0 z m -1.5,9 c -0.83,0 -1.5,-0.67 -1.5,-1.5 0,-0.83 0.67,-1.5 1.5,-1.5 0.83,0 1.5,0.67 1.5,1.5 0,0.83 -0.67,1.5 -1.5,1.5 z"
       id="path9"
       inkscape:connector-curvature="0"
       style="fill:#000000;fill-opacity:0.39053255" />
  </g>
  <g
     style="fill:#fa9600;fill-opacity:1"
     transform="matrix(6.3636364,0,0,6.8018362,29.63637,22.378)"
     id="g4149">
    <path
       style="fill:#fa9600;fill-opacity:1"
       inkscape:connector-curvature="0"
       id="path4151"
       d="M 20,8 17,8 17,4 3,4 C 1.9,4 1,4.9 1,6 l 0,11 2,0 c 0,1.66 1.34,3 3,3 1.66,0 3,-1.34 3,-3 l 6,0 c 0,1.66 1.34,3 3,3 1.66,0 3,-1.34 3,-3 l 2,0 0,-5 -3,-4 z M 6,18.5 c -0.83,0 -1.5,-0.67 -1.5,-1.5 0,-0.83 0.67,-1.5 1.5,-1.5 0.83,0 1.5,0.67 1.5,1.5 0,0.83 -0.67,1.5 -1.5,1.5 z m 13.5,-9 1.96,2.5 -4.46,0 0,-2.5 2.5,0 z m -1.5,9 c -0.83,0 -1.5,-0.67 -1.5,-1.5 0,-0.83 0.67,-1.5 1.5,-1.5 0.83,0 1.5,0.67 1.5,1.5 0,0.83 -0.67,1.5 -1.5,1.5 z" />
  </g>
</svg>
